<?xml version="1.0" encoding="UTF-8"?>
<svg width="18px" height="16px" viewBox="0 0 18 16" version="1.1" xmlns="http://www.w3.org/2000/svg" xmlns:xlink="http://www.w3.org/1999/xlink">
    <!-- Generator: Sketch 55.2 (78181) - https://sketchapp.com -->
    <title>icon/退出系统</title>
    <desc>Created with Sketch.</desc>
    <g id="旭辉pad" stroke="none" stroke-width="1" fill="none" fill-rule="evenodd">
        <g id="Pad/03-接待大使-首页" transform="translate(-963.000000, -32.000000)" fill="#FFFFFF" fill-rule="nonzero">
            <g id="status">
                <g id="icon/退出系统" transform="translate(958.000000, 26.000000)">
                    <g id="icon/退出" transform="translate(5.000000, 6.000000)">
                        <path d="M13,12.0769231 L13,13 C13,13.5118119 12.4230505,14 11.6363636,14 L3.36363636,14 C2.57694954,14 2,13.5118119 2,13 L2,3 C2,2.48818808 2.57694954,2 3.36363636,2 L11.6363636,2 C12.4230505,2 13,2.48818808 13,3 L13,3.92307692 C13,4.47536167 13.4477153,4.92307692 14,4.92307692 C14.5522847,4.92307692 15,4.47536167 15,3.92307692 L15,3 C15,1.30267292 13.4604775,0 11.6363636,0 L3.36363636,0 C1.53952255,0 0,1.30267292 0,3 L0,13 C0,14.6973271 1.53952255,16 3.36363636,16 L11.6363636,16 C13.4604775,16 15,14.6973271 15,13 L15,12.0769231 C15,11.5246383 14.5522847,11.0769231 14,11.0769231 C13.4477153,11.0769231 13,11.5246383 13,12.0769231 Z" id="路径"></path>
                        <path d="M9,7 L15,7 C15.5522847,7 16,7.44771525 16,8 C16,8.55228475 15.5522847,9 15,9 L9,9 C8.44771525,9 8,8.55228475 8,8 C8,7.44771525 8.44771525,7 9,7 Z" id="矩形"></path>
                        <path d="M15.6464466,6.64644661 C15.8417088,6.45118446 16.1582912,6.45118446 16.3535534,6.64644661 L18.3535534,8.64644661 C18.6685358,8.96142904 18.4454524,9.5 18,9.5 L14,9.5 C13.5545476,9.5 13.3314642,8.96142904 13.6464466,8.64644661 L15.6464466,6.64644661 Z" id="三角形" transform="translate(16.000000, 8.000000) rotate(90.000000) translate(-16.000000, -8.000000) "></path>
                    </g>
                </g>
            </g>
        </g>
    </g>
</svg>