<?xml version="1.0" standalone="no"?><!DOCTYPE svg PUBLIC "-//W3C//DTD SVG 1.1//EN" "http://www.w3.org/Graphics/SVG/1.1/DTD/svg11.dtd"><svg t="1571823786362" class="icon" viewBox="0 0 1024 1024" version="1.1" xmlns="http://www.w3.org/2000/svg" p-id="25274" xmlns:xlink="http://www.w3.org/1999/xlink" width="16" height="16"><defs><style type="text/css"></style></defs><path d="M751.475193 1021.414993H598.018492c-16.788497 0-28.772253-14.386127-28.772254-28.772253V661.761826h-119.879705v330.880914c0 16.788497-14.386127 28.772253-28.772254 28.772253H267.137579c-79.123697 0-143.861267-71.930633-143.861267-158.247393V599.426627H99.3088c-40.74196 0-74.333004-19.190868-88.71913-55.142136-11.92756-28.786302-9.595434-74.333004 31.174624-119.837559l362.041488-378.886181C432.578035 16.788497 470.945723 0 509.31341 0c40.74196 0 79.123697 16.788497 105.493579 45.560751l362.055537 381.232356c43.15838 45.560751 45.546702 91.107453 31.174625 119.879706-14.386127 35.965317-47.963122 55.142136-88.719131 55.142136h-23.981561v263.76907c0 86.31676-62.335199 155.845023-143.861266 155.845023z m-122.225881-59.932829h124.684447c52.753814 0 83.914389-50.351443 83.914389-98.342662V570.654374c0-16.858742 14.386127-28.772253 28.772254-28.772253h52.753814c16.788497 0 28.772253-7.193063 33.576995-19.17682 0-2.402371 9.581385-23.981561-21.57919-55.142136l-359.653167-381.232356a85.51597 85.51597 0 0 0-124.684447 0L84.922674 467.549116C56.15042 498.723741 63.287288 520.302931 63.287288 522.705301c4.790693 14.386127 16.788497 19.176819 33.562946 19.17682h52.753814c16.774448 0 28.772253 14.386127 28.772253 28.772253V863.1676c0 47.963122 31.174624 98.342663 83.914389 98.342662h127.072769V671.35726c0-19.176819 0-40.74196 14.386127-55.142135s35.965317-14.386127 43.15838-14.386127h122.225881c7.193063 0 28.772253 0 43.15838 14.386127s14.386127 35.965317 14.386127 55.142135v290.124904z m0 0" fill="" p-id="25275"></path></svg>