<?xml version="1.0" standalone="no"?><!DOCTYPE svg PUBLIC "-//W3C//DTD SVG 1.1//EN" "http://www.w3.org/Graphics/SVG/1.1/DTD/svg11.dtd"><svg t="1571823391803" class="icon" viewBox="0 0 1024 1024" version="1.1" xmlns="http://www.w3.org/2000/svg" p-id="7243" xmlns:xlink="http://www.w3.org/1999/xlink" width="16" height="16"><defs><style type="text/css"></style></defs><path d="M816 176h-112v-16c0-17.6-14.4-32-32-32s-32 14.4-32 32v16H384v-16c0-17.6-14.4-32-32-32s-32 14.4-32 32v16h-112c-52.8 0-96 43.2-96 112v528c0 36.8 43.2 80 96 80h608c52.8 0 96-43.2 96-80V288c0-68.8-43.2-112-96-112z m-608 64h112v16c0 17.6 14.4 32 32 32s32-14.4 32-32v-16h256v16c0 17.6 14.4 32 32 32s32-14.4 32-32v-16h112c17.6 0 32 14.4 32 32v80H176v-80c0-17.6 14.4-32 32-32z m608 592H208c-17.6 0-32-14.4-32-32V416h672v384c0 17.6-14.4 32-32 32z" p-id="7244"></path><path d="M652.8 481.6l-192 193.6-89.6-89.6c-12.8-12.8-32-12.8-44.8 0s-12.8 32 0 44.8l112 112c6.4 6.4 14.4 9.6 22.4 9.6s16-3.2 22.4-9.6l216-216c12.8-12.8 12.8-32 0-44.8s-33.6-12.8-46.4 0z" p-id="7245"></path></svg>